<svg viewBox="0 0 14 17" xmlns="http://www.w3.org/2000/svg">
  <g fill="currentColor" fill-rule="evenodd">
    <path d="M9.445 2.732c.578-.72.998-1.708.89-2.704-.863.03-1.89.567-2.502 1.29-.55.623-1.03 1.65-.893 2.618.938.062 1.902-.48 2.505-1.204M11.943 10.59l-.014-.028c-.27-.54-.392-1.383-.29-2.066V8.47h.002c.107-.894.685-1.81 1.147-2.142l.017-.013v-.002h.002c.1-.113.393-.347.59-.49-.728-1.067-1.92-1.644-3.136-1.662-1.225-.102-2.496.774-3.182.754-.663.02-1.665-.77-2.722-.72l-.01-.002c-.024 0-.214.01-.214.01-1.402.035-2.644.858-3.35 2.106v.005H.783v-.005c-.28.45-.613 1.5-.663 2.162v.036c-.07.42-.004 1.543.072 2.083.003.008.004.018.005.026l.002-.002c.058.538.332 1.578.537 2.086v.005c.196.56.747 1.615 1.103 2.153v.004h.004c.718 1.028 1.563 2.184 2.678 2.134 1.077-.04 1.474-.713 2.77-.703 1.297-.01 1.656.67 2.792.676 1.158-.05 1.876-1.078 2.595-2.108.35-.53.903-1.55 1.098-2.157h.002l.078-.235c-.762-.215-1.616-1.215-1.915-1.88"/>
  </g>
</svg>