<svg width="106" height="48" viewBox="0 0 106 48" fill="none" xmlns="http://www.w3.org/2000/svg">
<path d="M2.3674 12.911C2.3674 5.39964 7.07675 0.311768 14.1124 0.311768C18.8501 0.311768 21.914 2.31007 21.914 5.42798C21.914 7.78059 20.1693 9.18365 17.2331 9.18365C16.5238 5.08784 14.9351 3.11789 12.3677 3.11789C9.44561 3.11789 7.78599 5.37129 7.78599 9.35372C7.78599 14.6258 10.7081 17.8429 15.5167 17.8429C17.8997 17.8429 19.9991 17.0493 21.5594 15.547C21.1481 20.7058 17.8714 23.852 12.8641 23.852C6.33914 23.852 2.3674 19.7137 2.3674 12.911Z" fill="black"/>
<path d="M22.5524 14.8526C22.5524 9.60884 26.1128 6.03741 31.5881 6.03741C37.0634 6.03741 40.6238 9.59467 40.6238 14.8526C40.6238 20.0964 37.0634 23.6961 31.5881 23.6961C26.1128 23.6961 22.5524 20.0964 22.5524 14.8526ZM33.9428 14.8526C33.9428 9.76474 33.2052 7.95068 31.5881 7.95068C29.971 7.95068 29.2334 9.76474 29.2334 14.8526C29.2334 19.9405 29.971 21.7829 31.5881 21.7829C33.2052 21.7829 33.9428 19.9405 33.9428 14.8526Z" fill="black"/>
<path d="M50.1419 23.2143H41.1629C42.0565 22.3498 42.6239 21.0884 42.6239 18.4807V7.92233C42.6239 6.17914 42.397 5.28628 41.3473 4.29422L40.6097 3.62812L48.6808 0V18.4807C48.6808 21.0884 49.2482 22.3498 50.1419 23.2143Z" fill="black"/>
<path d="M60.128 23.2143H51.1632C52.0568 22.3498 52.6242 21.0884 52.6242 18.4807V7.92233C52.6242 6.17914 52.3973 5.28628 51.3476 4.29422L50.61 3.62812L58.667 0V18.4807C58.667 21.0884 59.2485 22.3498 60.128 23.2143Z" fill="black"/>
<path d="M75.3765 17.8147C74.3552 22.2364 71.9012 23.6962 68.3408 23.6962C64.2698 23.6962 60.4541 20.7342 60.4541 15.1786C60.4541 9.83565 63.8301 6.05164 68.2557 6.05164C71.1494 6.05164 75.2204 7.53973 75.2204 13.8464H65.6032C66.2698 17.2194 68.4685 18.9626 71.5182 18.9626C73.0927 18.9485 74.1708 18.665 75.3765 17.8147ZM65.4188 11.6355V12.0465H69.6175C69.6175 8.87193 68.9224 7.87987 67.5748 7.87987C66.2131 7.87987 65.4188 9.25458 65.4188 11.6355Z" fill="black"/>
<path d="M76.3268 15.4904C76.3268 9.76479 80.2134 6.05164 85.1497 6.05164C88.9371 6.05164 91.2918 7.63894 91.2918 9.99154C91.2918 11.8339 89.7031 13.1661 87.4335 13.1661C86.9938 9.99154 85.8164 8.23417 84.0859 8.23417C82.2986 8.23417 81.2915 9.76479 81.2915 12.4575C81.2915 16.3407 83.6745 18.9485 87.2065 18.9485C88.7385 18.9485 90.0719 18.4383 91.1215 17.4604C90.4549 21.5562 88.0718 23.6962 84.0575 23.6962C79.4475 23.6962 76.3268 20.3799 76.3268 15.4904Z" fill="black"/>
<path d="M103.633 19.3311C102.867 22.6049 100.64 23.682 98.2566 23.682C94.9799 23.682 93.4763 21.7404 93.4763 19.4161V8.10659H91.916L99.5333 1.68652V6.51929H102.881V8.10659H99.5333V17.6729C99.5333 19.2035 100.356 20.1247 101.704 20.1247C102.455 20.1247 103.165 19.8413 103.633 19.3311Z" fill="black"/>
<path d="M0 32.3351H1.49881V36.9694C1.86618 36.4868 2.29117 36.1135 2.77378 35.8496C3.25639 35.5856 3.82511 35.4535 4.47997 35.4533C5.11153 35.4533 5.6657 35.5684 6.14249 35.7986C6.60977 36.0211 7.01725 36.3519 7.33113 36.7634C7.64705 37.1768 7.88253 37.6678 8.03758 38.2363C8.19262 38.8047 8.27015 39.4336 8.27015 40.1229C8.27015 40.8579 8.17827 41.5214 7.99451 42.1135C7.81076 42.7055 7.54671 43.2079 7.20236 43.6208C6.8629 44.0295 6.43517 44.3559 5.95135 44.5753C5.46387 44.7993 4.91545 44.9113 4.3061 44.9113C3.78698 44.9108 3.27364 44.8023 2.79876 44.5926C2.31101 44.3802 1.87234 44.0156 1.48276 43.4985V44.636H0V32.3351ZM1.48276 40.4322C1.48276 41.0066 1.54871 41.4976 1.6806 41.9051C1.81249 42.3125 1.99347 42.6485 2.22353 42.9129C2.44549 43.1724 2.72965 43.3712 3.04941 43.4908C3.37074 43.6115 3.72098 43.6718 4.10014 43.6718C4.45078 43.675 4.79876 43.6107 5.12507 43.4823C5.44085 43.3562 5.7137 43.1524 5.94363 42.8707C6.17356 42.589 6.35441 42.2244 6.48616 41.7767C6.61805 41.3289 6.68413 40.7833 6.6844 40.1401C6.6844 39.4853 6.61257 38.9368 6.4689 38.4948C6.32523 38.0528 6.13863 37.6997 5.9091 37.4353C5.6789 37.1713 5.41756 36.9817 5.12507 36.8666C4.83718 36.7527 4.53037 36.6943 4.22079 36.6944C3.84974 36.6909 3.48142 36.7581 3.13553 36.8924C2.80624 37.0219 2.5093 37.2219 2.26558 37.4784C2.01845 37.7357 1.82603 38.0627 1.68832 38.4595C1.5506 38.8563 1.48208 39.3128 1.48276 39.8291V40.4322Z" fill="black"/>
<path d="M17.4071 35.7289L12.2731 47.9772H10.722L12.3242 44.4109L8.63765 35.7289H10.3776L13.065 42.6554L15.7525 35.7289H17.4071Z" fill="black"/>
<path d="M21.403 32.3351H23.1947L25.7617 42.4478L28.4319 32.3867H30.1381L32.7912 42.4478L35.3401 32.3351H37.0284L33.6173 44.6356H31.9462L29.2072 34.3503L26.5195 44.6356H24.9003L21.403 32.3351Z" fill="black"/>
<path d="M45.1096 42.1378C44.9606 42.9992 44.5788 43.6768 43.964 44.1707C43.3492 44.6645 42.4678 44.9115 41.3196 44.9115C39.9641 44.9115 38.9247 44.5009 38.2013 43.6797C37.478 42.8586 37.1162 41.713 37.1161 40.2429C37.1161 39.4735 37.2195 38.79 37.4262 38.1926C37.633 37.5951 37.923 37.0956 38.2962 36.6939C38.6685 36.2928 39.1242 35.9782 39.6313 35.7724C40.1482 35.5599 40.7109 35.4537 41.3196 35.4537C42.0087 35.4537 42.6002 35.5628 43.094 35.7811C43.5879 35.9994 43.9927 36.3008 44.3085 36.6854C44.6243 37.0703 44.8597 37.5268 45.0149 38.0551C45.1701 38.5833 45.2476 39.163 45.2475 39.7942V40.552H38.633C38.633 40.9999 38.6932 41.4162 38.8137 41.801C38.9343 42.1859 39.1066 42.519 39.3307 42.8004C39.555 43.0823 39.8407 43.3091 40.1661 43.4636C40.4992 43.6246 40.884 43.7051 41.3204 43.7049C42.0669 43.7049 42.6125 43.5641 42.9569 43.2826C43.3014 43.0011 43.5369 42.6192 43.6634 42.137L45.1096 42.1378ZM43.7487 39.433C43.7487 39.0082 43.7028 38.6235 43.611 38.2789C43.5192 37.9343 43.3756 37.6385 43.1802 37.3915C42.9848 37.1447 42.7321 36.9524 42.4221 36.8144C42.1122 36.6764 41.7389 36.6075 41.3023 36.6076C40.5101 36.6076 39.8928 36.8489 39.4505 37.3313C39.0083 37.8138 38.747 38.5144 38.6667 39.433H43.7487Z" fill="black"/>
<path d="M48.011 33.7477H43.9454V32.3351H53.6788V33.7477H49.6132V44.635H48.011V33.7477Z" fill="black"/>
<path d="M52.5819 35.729H54.0635V37.1071C54.3963 36.6136 54.7868 36.2344 55.2349 35.9697C55.6829 35.7049 56.1596 35.5728 56.6648 35.5734C56.9749 35.5734 57.2389 35.5964 57.457 35.6424L57.2672 37.0379C57.1526 37.0151 57.0375 36.9948 56.9219 36.9769C56.7964 36.959 56.6697 36.9503 56.5429 36.9511C56.2555 36.9532 55.9703 37.0027 55.699 37.0976C55.4116 37.1954 55.1417 37.359 54.8892 37.5885C54.6425 37.7991 54.4404 38.0568 54.2948 38.3466C54.1513 38.6338 54.0795 38.9669 54.0795 39.3458V44.6357H52.5807L52.5819 35.729Z" fill="black"/>
<path d="M66.2452 35.729V44.6358H64.781V43.361C64.4133 43.855 63.9883 44.2368 63.506 44.5066C63.0237 44.7763 62.4549 44.9113 61.7998 44.9114C60.9269 44.9114 60.212 44.7047 59.6551 44.2913C59.0981 43.8778 58.6846 43.3151 58.4146 42.6029C58.1447 41.891 58.0098 41.0989 58.0098 40.2264C58.0098 38.7447 58.363 37.5789 59.0695 36.729C59.7759 35.8792 60.7434 35.4542 61.972 35.4542C62.4429 35.4542 62.9253 35.5547 63.4193 35.7557C63.9132 35.9566 64.3669 36.3213 64.7801 36.8497V35.729H66.2452ZM64.798 39.916C64.798 39.204 64.7205 38.6498 64.5655 38.2535C64.4104 37.8571 64.155 37.521 63.7993 37.2452C63.5466 37.0384 63.2911 36.8948 63.0327 36.8143C62.756 36.7314 62.4684 36.6908 62.1796 36.6939C61.697 36.6939 61.2577 36.809 60.8616 37.0392C60.4655 37.2694 60.1526 37.6393 59.9228 38.1488C59.6926 38.6599 59.5775 39.3404 59.5775 40.1902C59.5775 41.0632 59.698 41.7524 59.939 42.2576C60.1801 42.7628 60.4902 43.1217 60.8695 43.3342C61.2487 43.5468 61.6449 43.653 62.0582 43.6529C62.391 43.6529 62.6896 43.6155 62.9539 43.5409C63.2182 43.4663 63.4823 43.3256 63.7461 43.1188C64.1 42.8571 64.3743 42.5022 64.5382 42.0937C64.7105 41.6747 64.7966 41.1493 64.7966 40.5175L64.798 39.916Z" fill="black"/>
<path d="M68.2243 35.7291H69.706V37.09C70.1419 36.5043 70.6243 36.0854 71.1531 35.8333C71.6743 35.5823 72.2456 35.4527 72.8241 35.4542C73.8347 35.4542 74.584 35.7299 75.0722 36.2812C75.5604 36.8324 75.8044 37.6421 75.8044 38.7103V44.6358H74.3056V39.002C74.3056 38.1751 74.1563 37.5922 73.8578 37.2533C73.5592 36.9144 73.0998 36.7451 72.4796 36.7455C72.142 36.7463 71.807 36.8045 71.489 36.9177C71.1571 37.0355 70.8544 37.2236 70.6018 37.469C70.3146 37.7217 70.0964 37.9887 69.9471 38.2701C69.7979 38.5515 69.7234 38.9162 69.7237 39.3642V44.6358H68.2247L68.2243 35.7291Z" fill="black"/>
<path d="M78.6764 42.0343C78.7796 42.6545 79.0408 43.0879 79.4601 43.3343C79.8793 43.5808 80.4507 43.7043 81.1744 43.7048C81.9327 43.7048 82.4696 43.5756 82.7851 43.3171C83.1006 43.0585 83.2582 42.717 83.2579 42.2925C83.2585 42.1269 83.238 41.9618 83.197 41.8014C83.1563 41.6458 83.0761 41.5035 82.9642 41.388C82.8493 41.2673 82.6885 41.161 82.482 41.0691C82.2755 40.9771 82.0056 40.9027 81.6722 40.8457L80.5347 40.6734C80.0294 40.5931 79.5873 40.4897 79.2084 40.3632C78.8295 40.2368 78.5079 40.0731 78.2436 39.8723C77.9869 39.6794 77.7833 39.4245 77.6519 39.1315C77.5199 38.8386 77.4539 38.4854 77.4539 38.072C77.4539 37.6586 77.5428 37.2911 77.7208 36.9695C77.9023 36.6439 78.1557 36.364 78.4617 36.1511C78.7774 35.9271 79.1506 35.7548 79.5813 35.6341C80.0121 35.5135 80.4801 35.4532 80.9855 35.4534C81.6285 35.4534 82.1654 35.5165 82.5962 35.6429C83.0269 35.7692 83.3801 35.9415 83.6557 36.1596C83.9229 36.3678 84.1406 36.6325 84.2932 36.9349C84.4437 37.2368 84.5596 37.5546 84.6385 37.8825L83.2777 38.1059C83.2062 37.8852 83.1139 37.6717 83.002 37.4683C82.9002 37.287 82.7585 37.1311 82.5877 37.0125C82.4154 36.8919 82.2055 36.8 81.958 36.7369C81.7105 36.6738 81.4032 36.6422 81.0362 36.642C80.623 36.642 80.2784 36.6794 80.0026 36.7542C79.7267 36.8289 79.5057 36.9293 79.3394 37.0554C79.1726 37.1821 79.0548 37.3229 78.9862 37.4777C78.9174 37.6322 78.8822 37.7995 78.8828 37.9686C78.8803 38.1349 78.9036 38.3005 78.9519 38.4596C79.0006 38.608 79.0902 38.7397 79.2104 38.8394C79.3366 38.9487 79.5089 39.0435 79.7272 39.1238C79.9454 39.2041 80.2268 39.273 80.5713 39.3304L81.8635 39.5371C82.9084 39.7084 83.6575 40.0068 84.111 40.4323C84.5645 40.8578 84.7913 41.478 84.7915 42.2929C84.7915 42.6721 84.717 43.0195 84.5681 43.3351C84.4191 43.6508 84.1952 43.9261 83.8963 44.1612C83.5974 44.3966 83.2241 44.5803 82.7766 44.7125C82.329 44.8447 81.8064 44.9107 81.2087 44.9105C80.6688 44.9105 80.1664 44.8589 79.7014 44.7556C79.2364 44.6522 78.8258 44.4886 78.4697 44.2646C78.1152 44.0427 77.8196 43.7383 77.6082 43.3774C77.39 43.01 77.2636 42.562 77.2292 42.0335L78.6764 42.0343Z" fill="black"/>
<path d="M87.0279 34.9709C87.0279 34.3278 87.1485 33.8024 87.3897 33.3945C87.6308 32.9866 87.9495 32.6852 88.3457 32.4902C88.7421 32.2949 89.1872 32.1973 89.681 32.1973C89.9343 32.1967 90.1873 32.2111 90.4389 32.2403C90.6959 32.2725 90.9495 32.3273 91.1969 32.4041L90.956 33.5755C90.785 33.5208 90.609 33.4833 90.4305 33.4635C90.2677 33.4465 90.1041 33.4378 89.9404 33.4376C89.5382 33.4376 89.1937 33.5439 88.9067 33.7565C88.6198 33.9691 88.4759 34.3566 88.4749 34.9191V35.7288H90.7326V36.9174H88.4749V44.6361H86.9761V36.9174H85.5807V35.78H86.356C86.6546 35.78 86.8412 35.7282 86.916 35.6248C86.9907 35.5213 87.028 35.3034 87.0279 34.9709Z" fill="black"/>
<path d="M99.3492 42.1378C99.2002 42.9992 98.8183 43.6768 98.2034 44.1707C97.5885 44.6645 96.7071 44.9115 95.5592 44.9115C94.2038 44.9115 93.1644 44.5009 92.4409 43.6797C91.7174 42.8586 91.3556 41.713 91.3554 40.2429C91.3554 39.4735 91.4588 38.79 91.6656 38.1926C91.8724 37.5951 92.1624 37.0956 92.5358 36.6939C92.9079 36.2927 93.3637 35.9781 93.8709 35.7724C94.3876 35.5599 94.9504 35.4537 95.5592 35.4537C96.2482 35.4537 96.8396 35.5628 97.3336 35.7811C97.8276 35.9994 98.2324 36.3008 98.5481 36.6854C98.8638 37.0703 99.0993 37.5268 99.2545 38.0551C99.4097 38.5833 99.4872 39.163 99.4871 39.7942V40.552H92.8717C92.8717 40.9999 92.932 41.4162 93.0525 41.801C93.173 42.1859 93.3453 42.519 93.5692 42.8004C93.7936 43.0823 94.0794 43.3091 94.4049 43.4636C94.7378 43.6246 95.1226 43.7051 95.5592 43.7049C96.3054 43.7049 96.8509 43.5641 97.1957 43.2826C97.5405 43.0011 97.7759 42.6192 97.9022 42.137L99.3492 42.1378ZM97.9883 39.433C97.9883 39.0082 97.9424 38.6235 97.8506 38.2789C97.7588 37.9343 97.6151 37.6385 97.4197 37.3915C97.2243 37.1447 96.9717 36.9524 96.6619 36.8144C96.3521 36.6764 95.9788 36.6075 95.5421 36.6076C94.7495 36.6076 94.1322 36.8489 93.6901 37.3313C93.248 37.8138 92.9866 38.5144 92.906 39.433H97.9883Z" fill="black"/>
<path d="M101.125 35.729H102.607V37.1071C102.94 36.6136 103.33 36.2344 103.778 35.9697C104.226 35.7049 104.703 35.5728 105.208 35.5734C105.518 35.5734 105.782 35.5964 106 35.6424L105.81 37.0379C105.696 37.0151 105.581 36.9948 105.465 36.9769C105.34 36.959 105.213 36.9503 105.086 36.9511C104.799 36.9532 104.513 37.0027 104.242 37.0976C103.955 37.1954 103.685 37.359 103.432 37.5885C103.186 37.7994 102.984 38.0575 102.838 38.3476C102.695 38.6348 102.623 38.9679 102.623 39.3468V44.6357H101.124L101.125 35.729Z" fill="black"/>
</svg>
