<svg width="850" height="136" viewBox="0 0 850 136" fill="none" xmlns="http://www.w3.org/2000/svg">
<g clip-path="url(#clip0)">
<path d="M897.5 -247.561L897.5 -247.559C905.985 -214.721 910.5 -186.953 910.5 -160C910.5 -132.931 905.985 -105.28 897.5 -72.4408L897.5 -72.44C880.184 -5.36179 829.939 44.3465 749.865 77.2272C669.71 110.141 559.971 126.039 424.514 125.486L424.5 125.486L424.486 125.486C289.029 126.039 179.277 110.141 99.116 77.2272C19.0354 44.3463 -31.2084 -5.36172 -48.4998 -72.4389L-48.5001 -72.44C-56.9849 -105.308 -61.5 -133.076 -61.5 -160C-61.5 -187.069 -56.9851 -214.72 -48.5002 -247.559L-48.5001 -247.56C-31.1843 -314.638 19.0603 -364.346 99.1346 -397.227C179.29 -430.141 289.029 -446.039 424.486 -445.486L424.5 -445.486L424.514 -445.486C559.971 -446.039 669.722 -430.141 749.884 -397.227C829.964 -364.346 880.208 -314.638 897.5 -247.561Z" stroke="#FF904B" stroke-width="7"/>
</g>
<defs>
<clipPath id="clip0">
<rect width="850" height="136" fill="white"/>
</clipPath>
</defs>
</svg>
