<svg width="76" height="102" viewBox="0 0 76 102" fill="none" xmlns="http://www.w3.org/2000/svg">
<path d="M-310.314 40.6237C-280.215 15.3991 -221.358 6.17342 -195.692 4.71367C-160.692 0.255742 -112.568 -3.16902 -64.4443 4.71367C-16.3203 12.5964 28.3037 48.5064 45.8033 78.2854C63.3029 108.064 53.6782 124.706 65.0529 175.505C76.4277 226.305 82.5526 276.228 65.0529 328.78C47.5938 381.209 24.9091 400.51 -9.95242 430.172L-10.1955 430.379C-45.1947 460.158 -88.0688 454.027 -165.067 460.158C-242.066 466.289 -260.44 437.385 -310.314 424.248C-360.188 411.11 -374.188 334.91 -382.938 299.876C-391.687 264.842 -379.438 252.58 -374.188 182.512C-368.938 112.444 -347.938 72.1544 -310.314 40.6237Z" fill="#FFDD8E"/>
</svg>
